<?xml version="1.0" encoding="utf-8"?>
<!-- Generator: Adobe Illustrator 23.0.2, SVG Export Plug-In . SVG Version: 6.00 Build 0)  -->
<svg version="1.1" id="Layer_1" xmlns="http://www.w3.org/2000/svg" xmlns:xlink="http://www.w3.org/1999/xlink" x="0px" y="0px"
	 viewBox="0 0 243.8 244.4" style="enable-background:new 0 0 243.8 244.4;" xml:space="preserve">
<style type="text/css">
	.st0{fill:#CBCBCB;}
	.st1{fill:#F69220;}
</style>
<title>Asset 9</title>
<g>
	<g id="Layer_1-2">
		<path class="st0" d="M243.8,221.9L227.5,66.8c-0.6-5-4.7-8.8-9.8-9h-29.4V43.7c0-28.8-23.5-43.7-52.2-43.7S84,14.9,84,43.7v14.2
			H54.6c-5.4,0-9.4,5-9.8,9l-2.5,29.5c6.6-1.7,13.4-2.6,20.3-2.8l1-16.2H84v18.4c6.8,1.6,13.4,3.9,19.6,7.1V77.4h65.3v26.1
			c-11.4,5.4-16.3,19-10.9,30.4c5.4,11.4,19,16.3,30.4,10.9c11.4-5.4,16.3-19,10.9-30.4c-2.3-4.8-6.1-8.6-10.9-10.9V77.4h20.3
			L223.3,213h-77.8c-2.8,7-6.4,13.5-10.8,19.6H234C239.4,232.6,244.2,227.3,243.8,221.9z M168.8,57.9h-65.3V43.7
			c0-18.2,14.4-24.1,32.6-24.1s32.6,5.9,32.6,24.1L168.8,57.9z"/>
		<g>
			<path class="st1" d="M73.9,159.8c-1.6-0.1-3,1.2-3.1,2.8c-0.1,1.6,1.2,3,2.8,3.1c1.6,0.1,3-1.2,3.1-2.8
				C76.7,161.2,75.5,159.9,73.9,159.8z"/>
			<path class="st1" d="M127.1,167.1c-5.2-24.3-24.1-43.5-48.2-49c-4.6-1.1-9.5-1.7-14.5-1.7c-2.3,0-4.5,0.1-6.7,0.4
				c-7.5,0.8-14.7,2.9-21.2,6c-1.3,0.6-2.5,1.3-3.7,2c-6.7,3.8-12.6,8.7-17.5,14.5c-9.4,11.1-15,25.5-15,41.2
				c0,30.6,21.5,56.2,50.2,62.6c0-0.1,0-0.1,0-0.2c4.5,1,9.2,1.6,14,1.6c6.5,0,12.7-1,18.5-2.7c0,0,0.1,0.1,0.1,0.1
				c7.8-2.4,15-6.2,21.3-11.2c7-5.5,12.7-12.5,16.9-20.4c0.1-0.2,0.2-0.5,0.4-0.7c3.3-6.5,5.5-13.6,6.4-21.2
				c0.3-2.5,0.5-5.1,0.5-7.8C128.5,175.9,128,171.4,127.1,167.1z M78.7,236.5c-4.6,1.2-9.4,1.8-14.3,1.8c-5.6,0-11.1-0.8-16.3-2.3
				c-24-7-41.5-29.2-41.5-55.5c0-13,4.3-24.9,11.5-34.6c9.3-12.4,23.4-20.9,39.6-22.8c2.2-0.3,4.4-0.4,6.7-0.4c5,0,9.8,0.6,14.5,1.8
				c20.6,5.3,36.8,21.8,41.7,42.6c1,4.3,1.6,8.8,1.6,13.4c0,2.6-0.2,5.2-0.5,7.8c-2.1,15.2-10.1,28.6-21.6,37.7
				C93.9,230.8,86.6,234.4,78.7,236.5z"/>
		</g>
		<g>
			<path class="st1" d="M104.2,188.2c-0.1-2.9-0.7-5.7-2-8.2c-1.8-3.5-6.7-9.1-10-13c-0.8-0.9-1.5-1.8-2-2.5c-5-6.4,2.7-14.2-6.6-24
				c-1.4-1.5-3-2.8-4.6-3.8c-5.9-3.8-13.1-4.5-21.2-3.5c-0.7,0.1-1.4,0.2-2.1,0.3c-9.1,2.4-15.6,6.8-20.3,12.3
				c-5.4,6.2-8.4,13.8-10,21.2c-0.4,1.7-0.7,3.3-0.9,5c-0.8,5.4-0.4,10.9,0.7,16.2c2.8,13.5,10.4,25.7,15.3,33.3
				c3.5,5.3,6,10,7.8,14.4c5.2,1.5,10.6,2.3,16.3,2.3c4.9,0,9.7-0.6,14.3-1.8c-1.8-2-3.6-3.9-5.6-5.9c-5.1-5.1-10.6-10.2-15.5-15.9
				c-1.5-1.7-2.8-3.5-4.1-5.3c-6-8.4-10.1-18.3-9.4-31c0.2-3.6,1.8-7.2,4.7-8.4c0.9-0.4,2.3-0.3,2.9,0.8c1.8,3.3,3.6,6.1,6.1,8.1
				c2.9,2.3,6.7,3.5,12.7,2.8c2.4-0.5,6.4,2.9,9.3,6.6c1,1.3,1.9,2.6,2.6,3.7c2.7,4.6,3.9,5.7,4.2,11.7c0.1,1-0.3,3.3-0.5,5.7
				c-0.5,5.3-0.7,11.8,4.3,9.6c1.4-0.6,4.6-4.4,7.5-9.6C101.3,203.4,104.4,195.5,104.2,188.2z M68.4,166.8c-0.4-0.5-0.6-1.1-0.6-1.7
				c0,0,0.3-5.6,0.3-6.1c0-1.4,1.2-2.4,2.5-2.3l6.1,0.3c0.6,0.1,1.2,0.3,1.6,0.8l0.9,1.1l6.1,7.2l8.2,9.7c0.9,1,0.8,2.5-0.2,3.4
				L87,185c-1,0.9-2.5,0.8-3.4-0.2L68.4,166.8z"/>
			<path class="st1" d="M73.9,159.8c-1.6-0.1-3,1.2-3.1,2.8c-0.1,1.6,1.2,3,2.8,3.1c1.6,0.1,3-1.2,3.1-2.8
				C76.7,161.2,75.5,159.9,73.9,159.8z"/>
		</g>
	</g>
</g>
</svg>
